<svg width="222" height="161" viewBox="0 0 222 161" fill="none" xmlns="http://www.w3.org/2000/svg">
<circle cx="35" cy="31" r="8" fill="#CF1717"/>
<path d="M39 43.4999C29.2986 41.0745 26.5 35 27 29.9999L40.5 36C45.7 36.4 48.5 38.5 49 39.4999C63.5 32.9999 91.5 22.5 102.5 25.4999L101.5 34.4999C99 32.9999 96.5 30.9999 91.5 30.9999C86 30.9999 69.5 39.9998 55.5 43.4999C49.5 45 41.5 44.1249 39 43.4999Z" fill="#CF1717"/>
<path d="M106.5 6C106 3 111 0 111 0V161H49C46.7561 161 47 156 49 156H77C81.5 153 95.6653 145.588 101.5 144.5C101.116 139.195 101.182 134 101.5 130.5C101.818 127 103.011 119.845 107 118C108 103 105.5 70.6667 104.5 51C100.471 43.7158 100.153 32.7711 102.5 25C101.5 17.5 107.167 12.5 110 9C110 9 107 9 106.5 6Z" fill="#CF1717"/>
<path d="M8.52972 110.75L38.5 44.2174L68.4703 110.75H8.52972Z" stroke="#CF1717"/>
<mask id="mask0_12_78" style="mask-type:alpha" maskUnits="userSpaceOnUse" x="0" y="110" width="77" height="13">
<rect y="110" width="77" height="13" fill="#D81818"/>
</mask>
<g mask="url(#mask0_12_78)">
<circle cx="38" cy="75" r="48" fill="#CF1717"/>
</g>
<path d="M32.0625 101.078C32.1328 101.219 32.209 101.354 32.291 101.482C32.3848 101.6 32.4492 101.746 32.4844 101.922C32.5312 101.98 32.5547 102.045 32.5547 102.115C32.5547 102.186 32.5664 102.256 32.5898 102.326C32.6719 102.619 32.7715 102.906 32.8887 103.188C33.0176 103.457 33.1406 103.715 33.2578 103.961C33.2812 104.16 33.3398 104.324 33.4336 104.453C33.5391 104.57 33.6035 104.729 33.627 104.928C33.7207 105.15 33.8262 105.361 33.9434 105.561C34.0605 105.76 34.1777 105.959 34.2949 106.158C34.3535 106.193 34.4121 106.229 34.4707 106.264C34.5293 106.299 34.5938 106.34 34.6641 106.387C34.7109 106.41 34.752 106.434 34.7871 106.457C34.8223 106.492 34.8691 106.521 34.9277 106.545C34.9863 106.568 35.0391 106.586 35.0859 106.598C35.1445 106.609 35.2031 106.627 35.2617 106.65C35.3086 106.674 35.3438 106.703 35.3672 106.738C35.4023 106.773 35.4375 106.803 35.4727 106.826C35.5195 106.838 35.5664 106.85 35.6133 106.861C35.6602 106.885 35.707 106.891 35.7539 106.879C35.9531 106.973 36.123 107.037 36.2637 107.072C36.4043 107.107 36.5391 107.148 36.668 107.195C36.7266 107.219 36.7969 107.242 36.8789 107.266C36.9727 107.289 37.0488 107.301 37.1074 107.301C37.2012 107.348 37.2598 107.395 37.2832 107.441C37.3184 107.5 37.3535 107.559 37.3887 107.617C37.4355 107.688 37.4941 107.746 37.5645 107.793C37.6348 107.852 37.7285 107.887 37.8457 107.898C37.8809 107.922 37.9043 107.951 37.916 107.986C37.9395 108.033 37.9746 108.074 38.0215 108.109C38.1387 108.203 38.1855 108.262 38.1621 108.285C38.1504 108.309 38.1387 108.338 38.127 108.373C38.0449 108.385 37.9629 108.396 37.8809 108.408C37.7988 108.42 37.7402 108.455 37.7051 108.514C37.6348 108.514 37.5527 108.514 37.459 108.514C37.377 108.525 37.3066 108.508 37.248 108.461C37.0488 108.473 36.8672 108.461 36.7031 108.426C36.5391 108.391 36.3398 108.361 36.1055 108.338C35.9766 108.338 35.8535 108.344 35.7363 108.355C35.6191 108.367 35.5137 108.355 35.4199 108.32C35.1621 108.215 34.957 108.121 34.8047 108.039C34.6523 107.957 34.4941 107.869 34.3301 107.775C34.2012 107.717 34.084 107.646 33.9785 107.564C33.873 107.482 33.7559 107.412 33.627 107.354C33.4629 107.166 33.3047 106.984 33.1523 106.809C33 106.633 32.8594 106.439 32.7305 106.229C32.6836 106.146 32.6426 106.082 32.6074 106.035C32.584 105.988 32.5605 105.941 32.5371 105.895C32.4902 105.789 32.4492 105.725 32.4141 105.701C32.3789 105.678 32.3496 105.643 32.3262 105.596C32.291 105.537 32.2617 105.467 32.2383 105.385C32.2148 105.303 32.1914 105.221 32.168 105.139C32.1445 105.033 32.1211 104.934 32.0977 104.84C32.0742 104.734 32.0449 104.635 32.0098 104.541C31.9863 104.471 31.9512 104.412 31.9043 104.365C31.8691 104.307 31.8457 104.236 31.834 104.154C31.7871 104.025 31.7402 103.896 31.6934 103.768C31.6582 103.627 31.6289 103.48 31.6055 103.328C31.5703 103.105 31.5234 102.936 31.4648 102.818C31.418 102.689 31.3828 102.566 31.3594 102.449C31.2891 102.273 31.1895 102.068 31.0605 101.834C30.9316 101.6 30.8203 101.395 30.7266 101.219C30.7031 101.16 30.6855 101.113 30.6738 101.078C30.6738 101.043 30.6562 101.014 30.6211 100.99C30.5625 101.049 30.5098 101.148 30.4629 101.289C30.416 101.43 30.3691 101.535 30.3223 101.605C30.1934 101.816 30.1113 101.986 30.0762 102.115C30.041 102.232 29.9883 102.35 29.918 102.467C29.8828 102.701 29.8184 102.906 29.7246 103.082C29.7012 103.246 29.6426 103.369 29.5488 103.451C29.4902 103.662 29.4199 103.873 29.3379 104.084C29.2559 104.295 29.1797 104.5 29.1094 104.699C29.0859 104.805 29.0566 104.904 29.0215 104.998C28.9863 105.092 28.9746 105.186 28.9863 105.279C28.9863 105.373 28.9688 105.455 28.9336 105.525C28.9102 105.596 28.8867 105.678 28.8633 105.771C28.8047 105.936 28.6758 106.035 28.4766 106.07C28.2891 106.105 28.1074 106.146 27.9316 106.193C27.8613 106.217 27.7793 106.24 27.6855 106.264C27.5449 106.299 27.3926 106.357 27.2285 106.439C27.0762 106.533 26.918 106.568 26.7539 106.545C26.6484 106.521 26.6133 106.457 26.6484 106.352C26.6719 106.258 26.7129 106.188 26.7715 106.141C26.8301 106.012 26.8945 105.883 26.9648 105.754C27.0234 105.625 27.0879 105.502 27.1582 105.385C27.1816 105.279 27.2227 105.197 27.2812 105.139C27.3516 105.092 27.3984 105.027 27.4219 104.945C27.4453 104.922 27.4629 104.893 27.4746 104.857C27.498 104.822 27.5156 104.793 27.5273 104.77C27.5508 104.711 27.5625 104.652 27.5625 104.594C27.5742 104.523 27.5918 104.459 27.6152 104.4C27.6504 104.307 27.6797 104.213 27.7031 104.119C27.7383 104.014 27.7852 103.902 27.8438 103.785C27.8672 103.715 27.8906 103.645 27.9141 103.574C27.9492 103.504 27.9844 103.422 28.0195 103.328C28.043 103.258 28.0781 103.193 28.125 103.135C28.1719 103.064 28.2129 102.994 28.248 102.924C28.3184 102.76 28.3711 102.631 28.4062 102.537C28.4414 102.432 28.4883 102.332 28.5469 102.238C28.6406 101.992 28.7461 101.77 28.8633 101.57C28.9922 101.359 29.1152 101.137 29.2324 100.902C29.2559 100.867 29.2793 100.838 29.3027 100.814C29.3262 100.779 29.3438 100.738 29.3555 100.691C29.4023 100.668 29.4375 100.627 29.4609 100.568C29.4844 100.51 29.5195 100.469 29.5664 100.445C29.6133 100.375 29.6484 100.305 29.6719 100.234C29.6953 100.164 29.7305 100.105 29.7773 100.059C29.9062 99.8242 30.0176 99.5898 30.1113 99.3555C30.1348 99.2969 30.1465 99.2441 30.1465 99.1973C30.1582 99.1504 30.1758 99.1035 30.1992 99.0566C30.2695 98.9746 30.3105 98.9102 30.3223 98.8633C30.3457 98.8164 30.3691 98.7754 30.3926 98.7402C30.4395 98.6582 30.4863 98.582 30.5332 98.5117C30.5918 98.4297 30.6445 98.3418 30.6914 98.248C30.75 98.0723 30.8262 97.9141 30.9199 97.7734C31.0254 97.6211 31.1074 97.4629 31.166 97.2988C31.2363 97.1934 31.2773 97.1348 31.2891 97.123C31.3008 97.1113 31.3066 97.0938 31.3066 97.0703C31.459 96.7773 31.5938 96.5078 31.7109 96.2617C31.8398 96.0039 31.9688 95.7402 32.0977 95.4707C31.9688 95.4941 31.8516 95.5527 31.7461 95.6465C31.6523 95.7402 31.5527 95.8047 31.4473 95.8398C31.4238 95.875 31.4004 95.9043 31.377 95.9277C31.3535 95.9512 31.3301 95.9746 31.3066 95.998C31.0137 96.1387 30.7441 96.2969 30.498 96.4727C30.252 96.6484 30.0352 96.8652 29.8477 97.123C29.7891 97.1465 29.7246 97.1816 29.6543 97.2285C29.5957 97.2637 29.5371 97.2988 29.4785 97.334C29.3965 97.3691 29.291 97.3926 29.1621 97.4043C29.0332 97.416 28.9336 97.375 28.8633 97.2812C28.8164 96.9414 28.8457 96.6895 28.9512 96.5254C29.0566 96.3613 29.1562 96.1973 29.25 96.0332C29.4023 95.8926 29.5664 95.7695 29.7422 95.6641C29.918 95.5469 30.0879 95.4355 30.252 95.3301C30.4043 95.2246 30.498 95.1543 30.5332 95.1191C30.5801 95.084 30.627 95.0547 30.6738 95.0312C30.9551 94.8438 31.248 94.6387 31.5527 94.416C31.7402 94.252 31.9453 94.1289 32.168 94.0469C32.3906 93.9766 32.5781 93.9238 32.7305 93.8887C32.8828 93.8418 33.0234 93.7891 33.1523 93.7305C33.5273 93.6602 33.873 93.5723 34.1895 93.4668C34.5059 93.3496 34.8281 93.2324 35.1562 93.1152C35.3203 93.0918 35.4727 93.0801 35.6133 93.0801C35.7656 93.0684 35.9297 93.0566 36.1055 93.0449C36.1523 93.0801 36.2168 93.0977 36.2988 93.0977C36.3926 93.0859 36.4746 93.0859 36.5449 93.0977C36.6387 93.1211 36.7266 93.1445 36.8086 93.168C36.9023 93.1797 36.9961 93.1973 37.0898 93.2207C37.1602 93.291 37.2598 93.3438 37.3887 93.3789C37.5293 93.4023 37.6582 93.4375 37.7754 93.4844C37.8691 93.5312 37.957 93.5781 38.0391 93.625C38.1211 93.6602 38.209 93.7012 38.3027 93.748C38.3848 93.8418 38.4199 93.9238 38.4082 93.9941C38.4082 94.0645 38.4141 94.1641 38.4258 94.293C38.4375 94.3516 38.4434 94.4102 38.4434 94.4688C38.4551 94.5156 38.4668 94.5684 38.4785 94.627C38.4785 94.6738 38.4844 94.7148 38.4961 94.75C38.5195 94.7852 38.5312 94.8203 38.5312 94.8555C38.543 95.0547 38.5547 95.2539 38.5664 95.4531C38.5898 95.6406 38.5898 95.834 38.5664 96.0332C38.543 96.1738 38.502 96.2969 38.4434 96.4023C38.3848 96.4961 38.3262 96.6074 38.2676 96.7363C38.1973 96.8535 38.1211 96.9707 38.0391 97.0879C37.957 97.2051 37.8691 97.3281 37.7754 97.457C37.7402 97.4805 37.7051 97.5039 37.6699 97.5273C37.6465 97.5391 37.6289 97.5684 37.6172 97.6152C37.4648 97.7324 37.3242 97.8262 37.1953 97.8965C37.0664 97.9668 36.9551 98.0371 36.8613 98.1074C36.8145 98.1309 36.7676 98.1543 36.7207 98.1777C36.6738 98.2012 36.627 98.2246 36.5801 98.248C36.5332 98.2949 36.4746 98.3418 36.4043 98.3887C36.334 98.4355 36.2695 98.4824 36.2109 98.5293C36.1172 98.623 36.0352 98.6875 35.9648 98.7227C35.8945 98.7578 35.8477 98.8164 35.8242 98.8984C35.5547 99.0508 35.3145 99.2266 35.1035 99.4258C34.8926 99.6133 34.6641 99.7891 34.418 99.9531C34.3242 100.035 34.2305 100.117 34.1367 100.199C34.0547 100.281 33.9551 100.352 33.8379 100.41C33.6738 100.48 33.5508 100.545 33.4688 100.604C33.3984 100.662 33.2988 100.703 33.1699 100.727C33.0176 100.82 32.8418 100.896 32.6426 100.955C32.4551 101.014 32.2617 101.055 32.0625 101.078ZM35.9824 94.2227C35.9355 94.2344 35.877 94.2402 35.8066 94.2402C35.7363 94.2402 35.6602 94.252 35.5781 94.2754C35.4609 94.2988 35.332 94.3398 35.1914 94.3984C35.0508 94.457 34.9102 94.498 34.7695 94.5215C34.582 94.5684 34.4297 94.6094 34.3125 94.6445C34.207 94.6797 34.1309 94.709 34.084 94.7324C34.0605 94.7559 34.043 94.7969 34.0312 94.8555C34.0312 94.9141 34.0195 94.9609 33.9961 94.9961C33.9492 95.1133 33.8906 95.2246 33.8203 95.3301C33.75 95.4238 33.6973 95.5176 33.6621 95.6113C33.5332 95.7637 33.4395 95.916 33.3809 96.0684C33.3223 96.209 33.2637 96.3438 33.2051 96.4727C33.0527 96.6719 32.9355 96.8477 32.8535 97C32.7949 97.0703 32.7598 97.1113 32.748 97.123C32.7363 97.123 32.7305 97.1348 32.7305 97.1582C32.5898 97.2988 32.4727 97.457 32.3789 97.6328C32.2969 97.8086 32.1914 97.9609 32.0625 98.0898C31.9688 98.2305 31.8984 98.3535 31.8516 98.459C31.8164 98.5645 31.752 98.6582 31.6582 98.7402C31.6113 98.834 31.5645 98.9277 31.5176 99.0215C31.4824 99.1035 31.4414 99.1914 31.3945 99.2852C31.2891 99.5195 31.1602 99.748 31.0078 99.9707C31.0078 100.029 30.9902 100.076 30.9551 100.111C30.9316 100.146 30.9082 100.188 30.8848 100.234C30.9316 100.27 30.9785 100.275 31.0254 100.252C31.0723 100.229 31.1133 100.205 31.1484 100.182C31.418 100.029 31.7109 99.9004 32.0273 99.7949C32.3438 99.6777 32.6309 99.5312 32.8887 99.3555C33.1113 99.2266 33.3164 99.1094 33.5039 99.0039C33.6914 98.8867 33.873 98.7637 34.0488 98.6348C34.2246 98.541 34.3594 98.4707 34.4531 98.4238C34.5469 98.3652 34.6582 98.3125 34.7871 98.2656C34.8809 98.1836 34.9805 98.1133 35.0859 98.0547C35.1914 97.9961 35.2734 97.9258 35.332 97.8438C35.4609 97.7383 35.5781 97.6211 35.6836 97.4922C35.7891 97.3516 35.9004 97.2227 36.0176 97.1055C36.0762 97.0938 36.1113 97.0762 36.123 97.0527C36.1348 97.0176 36.1699 97 36.2285 97C36.3223 96.8711 36.4336 96.7598 36.5625 96.666C36.7031 96.5605 36.8086 96.4434 36.8789 96.3145C36.9375 96.2207 36.9785 96.127 37.002 96.0332C37.0371 95.9395 37.084 95.834 37.1426 95.7168C37.1191 95.623 37.1367 95.5293 37.1953 95.4355C37.2656 95.3301 37.2891 95.2363 37.2656 95.1543C37.2422 95.0723 37.1953 95.002 37.125 94.9434C37.0547 94.873 37.002 94.8027 36.9668 94.7324C36.9434 94.6387 36.9141 94.5684 36.8789 94.5215C36.8555 94.4746 36.832 94.416 36.8086 94.3457C36.7617 94.3223 36.7207 94.2988 36.6855 94.2754C36.6504 94.252 36.5918 94.2461 36.5098 94.2578C36.4512 94.2344 36.3691 94.2285 36.2637 94.2402C36.1699 94.2402 36.0762 94.2344 35.9824 94.2227ZM39.6738 100.99C39.5918 101.096 39.5098 101.195 39.4277 101.289C39.3457 101.383 39.252 101.471 39.1465 101.553C39.0762 101.682 38.9941 101.799 38.9004 101.904C38.8066 102.01 38.7129 102.109 38.6191 102.203C38.5723 102.297 38.5195 102.373 38.4609 102.432C38.4023 102.479 38.3379 102.531 38.2676 102.59C38.2324 102.648 38.1855 102.707 38.127 102.766C38.0801 102.824 38.0332 102.883 37.9863 102.941C37.9512 103 37.9219 103.064 37.8984 103.135C37.875 103.205 37.8809 103.281 37.916 103.363C38.0449 103.387 38.1738 103.369 38.3027 103.311C38.4316 103.252 38.543 103.199 38.6367 103.152C38.7305 103.094 38.8242 103.047 38.918 103.012C39.0234 102.965 39.1172 102.912 39.1992 102.854L39.6562 102.396C39.7383 102.326 39.8086 102.25 39.8672 102.168C39.9258 102.086 39.9902 101.998 40.0605 101.904C40.084 101.787 40.1309 101.67 40.2012 101.553C40.2715 101.424 40.3008 101.301 40.2891 101.184C40.2773 101.113 40.2539 101.055 40.2188 101.008C40.1953 100.949 40.1777 100.891 40.166 100.832C40.0488 100.832 39.9551 100.855 39.8848 100.902C39.8262 100.938 39.7559 100.967 39.6738 100.99ZM36.8438 102.115C36.8672 102.104 36.9141 102.057 36.9844 101.975C37.0664 101.881 37.1543 101.781 37.248 101.676C37.3418 101.559 37.4297 101.459 37.5117 101.377C37.5938 101.283 37.6523 101.23 37.6875 101.219C37.7227 101.16 37.752 101.113 37.7754 101.078C37.8105 101.031 37.8574 100.99 37.916 100.955C38.0098 100.779 38.1328 100.639 38.2852 100.533C38.4375 100.416 38.584 100.281 38.7246 100.129C38.9473 100.035 39.1699 99.918 39.3926 99.7773C39.627 99.625 39.8848 99.543 40.166 99.5312C40.2949 99.5898 40.418 99.6074 40.5352 99.584C40.6641 99.5605 40.7812 99.5898 40.8867 99.6719C40.9453 99.7773 40.998 99.8477 41.0449 99.8828C41.0918 99.9062 41.127 99.9355 41.1504 99.9707C41.1973 100.123 41.2324 100.223 41.2559 100.27C41.2793 100.305 41.2969 100.352 41.3086 100.41C41.3203 100.586 41.332 100.715 41.3438 100.797C41.3555 100.867 41.3555 100.938 41.3438 101.008C41.3086 101.324 41.25 101.623 41.168 101.904C41.1445 101.975 41.1211 102.051 41.0977 102.133C41.0742 102.203 41.0449 102.268 41.0098 102.326C40.9277 102.432 40.8633 102.525 40.8164 102.607C40.7812 102.678 40.7461 102.736 40.7109 102.783C40.5703 102.924 40.4473 103.041 40.3418 103.135C40.2363 103.193 40.1309 103.258 40.0254 103.328C39.9199 103.398 39.8027 103.445 39.6738 103.469C39.6152 103.504 39.5625 103.539 39.5156 103.574C39.4688 103.598 39.4102 103.615 39.3398 103.627C39.2227 103.709 39.1055 103.773 38.9883 103.82C38.8711 103.855 38.748 103.902 38.6191 103.961C38.5488 103.984 38.4727 104.025 38.3906 104.084C38.3086 104.143 38.2266 104.189 38.1445 104.225C38.0742 104.248 37.9863 104.271 37.8809 104.295C37.7871 104.307 37.7109 104.324 37.6523 104.348C37.7109 104.477 37.7344 104.623 37.7227 104.787C37.7109 104.951 37.7402 105.098 37.8105 105.227C37.9629 105.262 38.127 105.291 38.3027 105.314C38.4902 105.326 38.666 105.32 38.8301 105.297C38.8887 105.285 38.9531 105.268 39.0234 105.244C39.0938 105.209 39.1641 105.186 39.2344 105.174C39.3633 105.15 39.4863 105.121 39.6035 105.086C39.7324 105.051 39.8438 105.004 39.9375 104.945C40.2773 104.828 40.6055 104.67 40.9219 104.471C41.2383 104.271 41.5137 104.055 41.748 103.82C41.8887 103.727 42.041 103.598 42.2051 103.434C42.3809 103.27 42.5156 103.117 42.6094 102.977C42.7852 102.789 42.9375 102.643 43.0664 102.537C43.207 102.432 43.3359 102.385 43.4531 102.396C43.5469 102.396 43.6348 102.455 43.7168 102.572C43.8105 102.678 43.8047 102.795 43.6992 102.924C43.582 102.994 43.459 103.1 43.3301 103.24C43.2012 103.381 43.0664 103.48 42.9258 103.539C42.8203 103.609 42.6855 103.738 42.5215 103.926C42.3691 104.113 42.2402 104.254 42.1348 104.348C42.0879 104.395 42.0234 104.453 41.9414 104.523C41.8711 104.582 41.8125 104.641 41.7656 104.699C41.6016 104.84 41.4258 104.969 41.2383 105.086C41.168 105.062 41.1152 105.074 41.0801 105.121C41.0449 105.168 40.998 105.215 40.9395 105.262C40.9043 105.285 40.8633 105.309 40.8164 105.332C40.7812 105.355 40.7461 105.379 40.7109 105.402C40.6172 105.484 40.5117 105.566 40.3945 105.648C40.2891 105.73 40.1777 105.801 40.0605 105.859C39.8262 106 39.5918 106.117 39.3574 106.211C39.123 106.316 38.8945 106.445 38.6719 106.598C38.6016 106.609 38.5371 106.615 38.4785 106.615C38.4199 106.627 38.3613 106.639 38.3027 106.65C38.2324 106.674 38.168 106.686 38.1094 106.686C38.0625 106.686 37.9922 106.674 37.8984 106.65C37.6875 106.592 37.5117 106.521 37.3711 106.439C37.2305 106.357 37.0898 106.24 36.9492 106.088C36.8789 106.018 36.8027 105.953 36.7207 105.895C36.6387 105.836 36.5742 105.771 36.5273 105.701C36.4922 105.643 36.4512 105.549 36.4043 105.42C36.3574 105.291 36.3164 105.156 36.2812 105.016C36.2461 104.863 36.2168 104.717 36.1934 104.576C36.1699 104.436 36.1582 104.33 36.1582 104.26C36.1816 104.213 36.2109 104.131 36.2461 104.014C36.2695 103.896 36.2988 103.773 36.334 103.645C36.3574 103.504 36.3809 103.375 36.4043 103.258C36.416 103.141 36.4219 103.059 36.4219 103.012C36.4336 103 36.4629 102.953 36.5098 102.871C36.5566 102.777 36.6094 102.678 36.668 102.572C36.7148 102.467 36.7559 102.373 36.791 102.291C36.8262 102.197 36.8438 102.139 36.8438 102.115ZM48.5684 104.488C48.6621 104.488 48.7207 104.494 48.7441 104.506C48.7676 104.518 48.7969 104.523 48.832 104.523C48.8789 104.523 48.9434 104.5 49.0254 104.453C49.1191 104.395 49.207 104.33 49.2891 104.26C49.3828 104.189 49.4648 104.119 49.5352 104.049C49.6172 103.979 49.6816 103.926 49.7285 103.891C49.834 103.867 49.9395 103.809 50.0449 103.715C50.1504 103.621 50.25 103.516 50.3438 103.398C50.4375 103.281 50.5195 103.164 50.5898 103.047C50.6719 102.93 50.748 102.836 50.8184 102.766C51.0996 102.484 51.293 102.279 51.3984 102.15C51.5156 102.021 51.5918 101.934 51.627 101.887C51.6621 101.84 51.6797 101.822 51.6797 101.834C51.6914 101.834 51.7266 101.834 51.7852 101.834C51.8789 101.834 51.9434 101.881 51.9785 101.975C52.0254 102.057 52.0664 102.127 52.1016 102.186C52.0781 102.209 52.0664 102.244 52.0664 102.291C52.0664 102.338 52.0547 102.379 52.0312 102.414C52.0078 102.449 51.9727 102.484 51.9258 102.52C51.8789 102.555 51.8379 102.596 51.8027 102.643L51.627 102.854C51.4863 102.994 51.3633 103.146 51.2578 103.311C51.1641 103.475 51.0703 103.639 50.9766 103.803C50.8828 103.955 50.7891 104.102 50.6953 104.242C50.6016 104.371 50.4961 104.471 50.3789 104.541C50.0625 104.74 49.8105 104.951 49.623 105.174C49.4473 105.396 49.248 105.572 49.0254 105.701C49.002 105.701 48.9844 105.701 48.9727 105.701C48.9727 105.689 48.9668 105.684 48.9551 105.684C48.9082 105.684 48.8672 105.695 48.832 105.719C48.8086 105.742 48.7793 105.754 48.7441 105.754C48.6504 105.719 48.5684 105.689 48.498 105.666C48.4277 105.631 48.3516 105.584 48.2695 105.525C48.1992 105.467 48.1172 105.385 48.0234 105.279C47.9414 105.162 47.8418 105.004 47.7246 104.805C47.666 104.711 47.6191 104.617 47.584 104.523C47.5488 104.418 47.502 104.312 47.4434 104.207C47.3496 104.031 47.2676 103.891 47.1973 103.785C47.1387 103.668 47.1094 103.469 47.1094 103.188C47.1094 103.07 47.1211 102.895 47.1445 102.66C47.168 102.426 47.1914 102.238 47.2148 102.098C47.0273 102.285 46.8574 102.514 46.7051 102.783C46.5645 103.041 46.4238 103.281 46.2832 103.504C46.084 103.809 45.8789 104.096 45.668 104.365C45.4688 104.623 45.3633 104.828 45.3516 104.98C45.2812 105.051 45.2168 105.133 45.1582 105.227C45.0996 105.32 45.0469 105.408 45 105.49C44.9648 105.561 44.9355 105.625 44.9121 105.684C44.9004 105.73 44.9062 105.742 44.9297 105.719C44.7656 105.988 44.5254 106.176 44.209 106.281C43.9043 106.398 43.6172 106.457 43.3477 106.457C43.2422 106.445 43.1367 106.434 43.0312 106.422C42.9258 106.41 42.8262 106.369 42.7324 106.299L42.4688 106.105C42.2812 106.012 42.1523 105.865 42.082 105.666C42.0117 105.467 41.9766 105.25 41.9766 105.016C42.1172 104.652 42.2051 104.324 42.2402 104.031C42.2637 103.727 42.3281 103.439 42.4336 103.17C42.5977 102.736 42.8262 102.35 43.1191 102.01C43.4238 101.67 43.7402 101.359 44.0684 101.078C44.3965 100.797 44.707 100.545 45 100.322C45.3047 100.1 45.5449 99.8828 45.7207 99.6719C45.8027 99.6602 45.8965 99.625 46.002 99.5664C46.1074 99.5078 46.2188 99.4492 46.3359 99.3906C46.4531 99.3203 46.5703 99.2617 46.6875 99.2148C46.8164 99.168 46.9453 99.1445 47.0742 99.1445C47.2148 99.1445 47.3203 99.1621 47.3906 99.1973C47.4727 99.2324 47.5371 99.2793 47.584 99.3379C47.6309 99.3848 47.6602 99.4375 47.6719 99.4961C47.6953 99.5547 47.7246 99.6133 47.7598 99.6719C47.8301 99.4844 47.8887 99.291 47.9355 99.0918C47.9824 98.8809 48.0469 98.6934 48.1289 98.5293C48.1992 98.166 48.3164 97.7793 48.4805 97.3691C48.6562 96.959 48.8262 96.584 48.9902 96.2441C49.166 95.8926 49.3184 95.5996 49.4473 95.3652C49.5879 95.1191 49.6699 94.9785 49.6934 94.9434C49.8691 94.6738 50.0625 94.4395 50.2734 94.2402C50.4961 94.0293 50.6777 93.8184 50.8184 93.6074C50.9355 93.4785 51.0469 93.3203 51.1523 93.1328C51.2695 92.9336 51.3633 92.8105 51.4336 92.7637C51.6094 92.8105 51.7383 92.8809 51.8203 92.9746C51.9023 93.0566 51.9551 93.1445 51.9785 93.2383C52.002 93.332 52.0078 93.4258 51.9961 93.5195C51.9844 93.6133 51.9785 93.6836 51.9785 93.7305C51.9785 93.918 51.9609 94.1055 51.9258 94.293L51.3281 95.541C51.1641 95.8457 51.0059 96.1562 50.8535 96.4727C50.7129 96.7891 50.5781 97.1113 50.4492 97.4395C50.2266 97.8613 49.9863 98.2305 49.7285 98.5469C49.4824 98.8633 49.2539 99.2031 49.043 99.5664C48.9961 99.6953 48.9316 99.8184 48.8496 99.9355C48.7793 100.041 48.709 100.152 48.6387 100.27L48.3223 101.025C48.252 101.119 48.2168 101.207 48.2168 101.289C48.2402 101.348 48.252 101.395 48.252 101.43C48.252 101.465 48.252 101.494 48.252 101.518C48.252 101.623 48.2461 101.729 48.2344 101.834C48.2344 101.939 48.2344 102.051 48.2344 102.168C48.2344 102.473 48.2402 102.777 48.252 103.082C48.2637 103.375 48.2812 103.656 48.3047 103.926C48.2812 103.973 48.2695 104.002 48.2695 104.014C48.2695 104.096 48.3105 104.184 48.3926 104.277C48.4863 104.359 48.5449 104.43 48.5684 104.488ZM46.8809 100.217L46.4414 100.498C46.3477 100.533 46.2305 100.621 46.0898 100.762C45.9492 100.891 45.8262 101.002 45.7207 101.096L45.3516 101.43C45.2695 101.582 45.1582 101.711 45.0176 101.816C44.877 101.922 44.7598 102.039 44.666 102.168C44.5371 102.332 44.4082 102.525 44.2793 102.748C44.1621 102.971 44.1094 103.158 44.1211 103.311C44.0625 103.521 43.998 103.703 43.9277 103.855C43.8574 104.008 43.8223 104.178 43.8223 104.365C43.8223 104.518 43.8691 104.6 43.9629 104.611C44.0684 104.611 44.1445 104.611 44.1914 104.611C44.332 104.518 44.4727 104.395 44.6133 104.242C44.7656 104.078 44.9062 103.914 45.0352 103.75C45.1758 103.574 45.293 103.404 45.3867 103.24C45.4922 103.076 45.5684 102.93 45.6152 102.801C45.7441 102.578 45.8906 102.344 46.0547 102.098C46.2188 101.84 46.4004 101.611 46.5996 101.412L47.0566 100.674C47.0801 100.615 47.1035 100.562 47.127 100.516C47.1504 100.469 47.1621 100.416 47.1621 100.357C47.1621 100.275 47.1387 100.205 47.0918 100.146C47.0449 100.146 47.0039 100.158 46.9688 100.182C46.9336 100.193 46.9043 100.205 46.8809 100.217Z" fill="#CF1717"/>
<circle r="8" transform="matrix(-1 0 0 1 187 31)" fill="#177DCF"/>
<path d="M183 43.4999C192.701 41.0745 195.5 35 195 29.9999L181.5 36C176.3 36.4 173.5 38.5 173 39.4999C158.5 32.9999 130.5 22.5 119.5 25.4999L120.5 34.4999C123 32.9999 125.5 30.9999 130.5 30.9999C136 30.9999 152.5 39.9998 166.5 43.4999C172.5 45 180.5 44.1249 183 43.4999Z" fill="#177DCF"/>
<path d="M115.5 6C116 3 111 0 111 0V161H173C175.244 161 175 156 173 156H145C140.5 153 126.335 145.588 120.5 144.5C120.884 139.195 120.818 134 120.5 130.5C120.182 127 118.989 119.845 115 118C114 103 116.5 70.6667 117.5 51C121.529 43.7158 121.847 32.7711 119.5 25C120.5 17.5 114.833 12.5 112 9C112 9 115 9 115.5 6Z" fill="#177DCF"/>
<path d="M213.47 110.75L183.5 44.2174L153.53 110.75H213.47Z" stroke="#177DCF"/>
<mask id="mask1_12_78" style="mask-type:alpha" maskUnits="userSpaceOnUse" x="145" y="110" width="77" height="13">
<rect width="77" height="13" transform="matrix(-1 0 0 1 222 110)" fill="#C4C4C4"/>
</mask>
<g mask="url(#mask1_12_78)">
<circle r="48" transform="matrix(-1 0 0 1 184 75)" fill="#177DCF"/>
</g>
<path d="M183.965 94.416C184.023 94.7207 184.094 94.9961 184.176 95.2422C184.258 95.4883 184.311 95.7578 184.334 96.0508C184.334 96.1211 184.328 96.1914 184.316 96.2617C184.316 96.332 184.322 96.4023 184.334 96.4727V96.6836C184.334 96.7773 184.322 96.8652 184.299 96.9473C184.287 97.0293 184.281 97.1172 184.281 97.2109C184.27 97.4219 184.234 97.627 184.176 97.8262C184.164 97.9551 184.152 98.0195 184.141 98.0195C184.129 98.0078 184.123 98.0137 184.123 98.0371C184.1 98.166 184.082 98.2891 184.07 98.4062C184.059 98.5234 184.041 98.6465 184.018 98.7754C184.229 98.7988 184.469 98.8281 184.738 98.8633C185.02 98.8867 185.283 98.8867 185.529 98.8633C185.588 98.8516 185.641 98.834 185.688 98.8105C185.746 98.7871 185.805 98.7637 185.863 98.7402C186.062 98.7168 186.221 98.6699 186.338 98.5996C186.455 98.5293 186.596 98.4707 186.76 98.4238C186.713 98.5527 186.654 98.6289 186.584 98.6523C186.549 98.7695 186.514 98.8516 186.479 98.8984C186.455 98.9336 186.426 98.9629 186.391 98.9863C186.332 99.0332 186.279 99.0742 186.232 99.1094C186.186 99.1328 186.133 99.168 186.074 99.2148C185.887 99.3203 185.734 99.3789 185.617 99.3906C185.512 99.3906 185.412 99.4082 185.318 99.4434C185.236 99.4316 185.137 99.4199 185.02 99.4082C184.914 99.3965 184.82 99.3965 184.738 99.4082C184.68 99.373 184.615 99.3555 184.545 99.3555C184.475 99.3555 184.404 99.3672 184.334 99.3906C184.193 99.4375 184.1 99.4727 184.053 99.4961C184.006 99.5078 183.959 99.5254 183.912 99.5488C183.889 99.6191 183.871 99.6719 183.859 99.707C183.859 99.7422 183.854 99.7715 183.842 99.7949C183.83 99.9238 183.818 100.053 183.807 100.182C183.807 100.299 183.789 100.422 183.754 100.551C183.707 100.656 183.684 100.727 183.684 100.762C183.684 100.785 183.672 100.82 183.648 100.867C183.613 100.926 183.584 100.996 183.561 101.078C183.537 101.16 183.514 101.242 183.49 101.324C183.432 101.383 183.396 101.453 183.385 101.535C183.373 101.617 183.361 101.705 183.35 101.799C183.338 101.893 183.309 101.986 183.262 102.08C183.215 102.162 183.168 102.244 183.121 102.326C183.098 102.385 183.074 102.443 183.051 102.502C183.027 102.549 182.998 102.602 182.963 102.66C182.822 102.836 182.688 103.023 182.559 103.223C182.5 103.352 182.436 103.469 182.365 103.574C182.307 103.668 182.248 103.773 182.189 103.891C182.096 104.055 181.979 104.201 181.838 104.33C181.697 104.447 181.557 104.57 181.416 104.699C181.346 104.758 181.275 104.822 181.205 104.893C181.135 104.963 181.07 105.027 181.012 105.086C180.953 105.145 180.889 105.209 180.818 105.279C180.76 105.338 180.701 105.396 180.643 105.455C180.561 105.514 180.473 105.578 180.379 105.648C180.297 105.707 180.209 105.766 180.115 105.824C179.928 105.93 179.74 106.029 179.553 106.123C179.377 106.217 179.189 106.322 178.99 106.439C178.896 106.498 178.809 106.551 178.727 106.598C178.645 106.656 178.557 106.703 178.463 106.738C178.393 106.762 178.316 106.773 178.234 106.773C178.164 106.785 178.094 106.797 178.023 106.809C177.93 106.832 177.842 106.85 177.76 106.861C177.678 106.885 177.584 106.896 177.479 106.896C177.35 106.885 177.203 106.855 177.039 106.809C176.887 106.773 176.77 106.727 176.688 106.668C176.535 106.527 176.441 106.428 176.406 106.369C176.383 106.311 176.342 106.252 176.283 106.193C176.271 106.146 176.254 106.111 176.23 106.088C176.219 106.076 176.213 106.047 176.213 106C176.131 105.883 176.066 105.766 176.02 105.648C175.914 105.426 175.838 105.232 175.791 105.068C175.756 104.893 175.75 104.711 175.773 104.523C175.75 104.336 175.738 104.125 175.738 103.891C175.738 103.645 175.738 103.41 175.738 103.188C175.738 103.105 175.732 103.029 175.721 102.959C175.721 102.877 175.732 102.807 175.756 102.748C175.744 102.654 175.732 102.566 175.721 102.484C175.721 102.391 175.732 102.309 175.756 102.238C175.768 102.121 175.773 102.033 175.773 101.975C175.785 101.916 175.803 101.857 175.826 101.799C175.885 101.74 175.908 101.682 175.896 101.623C175.896 101.564 175.908 101.506 175.932 101.447C175.979 101.131 176.055 100.85 176.16 100.604C176.195 100.51 176.23 100.422 176.266 100.34C176.301 100.246 176.33 100.152 176.354 100.059C176.424 99.8594 176.5 99.6777 176.582 99.5137C176.676 99.3496 176.764 99.1738 176.846 98.9863C177.01 98.6465 177.18 98.3359 177.355 98.0547C177.543 97.7617 177.73 97.4629 177.918 97.1582C177.977 97.123 178.018 97.0762 178.041 97.0176C178.064 96.9473 178.1 96.8945 178.146 96.8594C178.24 96.6602 178.352 96.4902 178.48 96.3496C178.609 96.209 178.738 96.0684 178.867 95.9277C178.926 95.8809 178.979 95.834 179.025 95.7871C179.072 95.7285 179.125 95.6699 179.184 95.6113C179.219 95.5762 179.254 95.5469 179.289 95.5234C179.336 95.4883 179.371 95.4473 179.395 95.4004C179.441 95.377 179.482 95.3477 179.518 95.3125C179.564 95.2773 179.605 95.2422 179.641 95.207C179.688 95.1719 179.734 95.1367 179.781 95.1016C179.828 95.0664 179.875 95.0312 179.922 94.9961C180.016 94.9258 180.098 94.8555 180.168 94.7852C180.25 94.7031 180.338 94.6328 180.432 94.5742C180.525 94.5625 180.584 94.5566 180.607 94.5566C180.631 94.5566 180.643 94.5391 180.643 94.5039C180.783 94.3867 180.871 94.3047 180.906 94.2578C180.953 94.1992 180.994 94.1406 181.029 94.082C181.123 94.0234 181.205 93.959 181.275 93.8887C181.346 93.8066 181.428 93.7363 181.521 93.6777C181.592 93.5957 181.639 93.543 181.662 93.5195C181.697 93.4961 181.732 93.4727 181.768 93.4492C181.791 93.4141 181.814 93.3906 181.838 93.3789C181.873 93.3555 181.896 93.332 181.908 93.3086C181.967 93.2852 182.02 93.2617 182.066 93.2383C182.113 93.2031 182.172 93.1738 182.242 93.1504C182.324 93.1621 182.389 93.1621 182.436 93.1504C182.494 93.1387 182.547 93.1387 182.594 93.1504C182.664 93.1621 182.717 93.1914 182.752 93.2383C182.799 93.2734 182.852 93.3145 182.91 93.3613C183.051 93.3848 183.156 93.4609 183.227 93.5898C183.309 93.707 183.396 93.7949 183.49 93.8535C183.549 93.9473 183.613 94.041 183.684 94.1348C183.766 94.2168 183.836 94.3105 183.895 94.416H183.965ZM182.594 97.7734C182.652 97.8555 182.723 97.9316 182.805 98.002C182.887 98.0605 182.969 98.1191 183.051 98.1777C183.051 97.873 183.062 97.5449 183.086 97.1934C183.121 96.8301 183.127 96.4961 183.104 96.1914C183.068 96.0625 183.027 95.9395 182.98 95.8223C182.945 95.7051 182.916 95.5762 182.893 95.4355C182.846 95.3887 182.811 95.3418 182.787 95.2949C182.775 95.248 182.758 95.2012 182.734 95.1543C182.676 95.084 182.646 95.043 182.646 95.0312C182.646 95.0078 182.635 94.9844 182.611 94.9609C182.588 94.9375 182.559 94.9141 182.523 94.8906C182.5 94.8672 182.477 94.8379 182.453 94.8027C182.312 94.791 182.195 94.8203 182.102 94.8906C182.02 94.9492 181.938 95.0078 181.855 95.0664C181.832 95.2305 181.826 95.3828 181.838 95.5234C181.85 95.6641 181.867 95.7988 181.891 95.9277C181.926 96.1504 181.961 96.373 181.996 96.5957C182.031 96.8184 182.09 97.0117 182.172 97.1758C182.184 97.2578 182.23 97.3574 182.312 97.4746C182.395 97.5801 182.488 97.6797 182.594 97.7734ZM180.238 96.2441C180.18 96.3027 180.121 96.3555 180.062 96.4023C180.004 96.4492 179.951 96.5078 179.904 96.5781C179.834 96.6367 179.775 96.6953 179.729 96.7539C179.682 96.8125 179.629 96.8711 179.57 96.9297C179.512 96.9883 179.459 97.0469 179.412 97.1055C179.365 97.1523 179.318 97.2109 179.271 97.2812C179.236 97.3047 179.207 97.334 179.184 97.3691C179.16 97.4043 179.131 97.4395 179.096 97.4746C178.979 97.627 178.896 97.7324 178.85 97.791C178.803 97.8496 178.768 97.9082 178.744 97.9668C178.674 98.0137 178.615 98.0781 178.568 98.1602C178.533 98.2305 178.498 98.3066 178.463 98.3887C178.393 98.4824 178.328 98.582 178.27 98.6875C178.211 98.793 178.158 98.8984 178.111 99.0039C178.018 99.168 177.959 99.2793 177.936 99.3379C177.924 99.3965 177.906 99.4551 177.883 99.5137C177.836 99.584 177.795 99.6777 177.76 99.7949C177.561 100.217 177.385 100.697 177.232 101.236C177.209 101.342 177.174 101.441 177.127 101.535C177.092 101.629 177.068 101.723 177.057 101.816C177.045 101.863 177.039 101.91 177.039 101.957C177.051 102.004 177.057 102.051 177.057 102.098C177.045 102.215 177.033 102.332 177.021 102.449C177.01 102.555 177.004 102.672 177.004 102.801C177.004 103.035 177.004 103.252 177.004 103.451C177.004 103.65 177.016 103.855 177.039 104.066C177.039 104.219 177.051 104.342 177.074 104.436C177.098 104.482 177.139 104.529 177.197 104.576C177.256 104.623 177.309 104.664 177.355 104.699C177.449 104.793 177.543 104.893 177.637 104.998C177.73 105.092 177.859 105.109 178.023 105.051C178.082 105.086 178.146 105.086 178.217 105.051C178.287 105.016 178.357 105.01 178.428 105.033C178.486 105.01 178.545 104.998 178.604 104.998C178.662 104.986 178.721 104.969 178.779 104.945C178.873 104.922 178.961 104.898 179.043 104.875C179.137 104.84 179.225 104.811 179.307 104.787C179.4 104.752 179.494 104.723 179.588 104.699C179.682 104.664 179.77 104.623 179.852 104.576C180.086 104.377 180.256 104.219 180.361 104.102C180.443 104.02 180.525 103.949 180.607 103.891C180.689 103.82 180.766 103.75 180.836 103.68C180.895 103.621 180.953 103.562 181.012 103.504C181.07 103.434 181.123 103.352 181.17 103.258C181.205 103.223 181.234 103.188 181.258 103.152C181.293 103.105 181.322 103.059 181.346 103.012C181.404 102.941 181.445 102.865 181.469 102.783C181.504 102.701 181.551 102.619 181.609 102.537C181.68 102.338 181.762 102.15 181.855 101.975C181.949 101.799 182.025 101.617 182.084 101.43C182.189 101.207 182.277 101.014 182.348 100.85C182.43 100.674 182.488 100.498 182.523 100.322C182.559 100.287 182.576 100.246 182.576 100.199C182.588 100.141 182.605 100.094 182.629 100.059C182.688 99.8945 182.734 99.7363 182.77 99.584C182.816 99.4316 182.863 99.2617 182.91 99.0742C182.863 99.0508 182.822 99.0449 182.787 99.0566C182.752 99.0566 182.717 99.0449 182.682 99.0215C182.588 98.9863 182.5 98.9277 182.418 98.8457C182.348 98.752 182.266 98.6992 182.172 98.6875C182.125 98.6523 182.084 98.623 182.049 98.5996C182.025 98.5762 181.99 98.5527 181.943 98.5293C181.756 98.3301 181.574 98.125 181.398 97.9141C181.234 97.6914 181.1 97.4453 180.994 97.1758C180.889 96.9414 180.807 96.7246 180.748 96.5254C180.689 96.3145 180.637 96.0918 180.59 95.8574C180.52 95.9277 180.455 95.9922 180.396 96.0508C180.35 96.1094 180.297 96.1738 180.238 96.2441ZM187.34 102.045C187.445 101.975 187.545 101.898 187.639 101.816C187.744 101.734 187.85 101.652 187.955 101.57C188.201 101.371 188.453 101.178 188.711 100.99C188.969 100.791 189.221 100.592 189.467 100.393C189.502 100.346 189.555 100.299 189.625 100.252C189.754 100.182 189.818 100.141 189.818 100.129C189.83 100.105 189.848 100.088 189.871 100.076C189.918 100.053 189.971 100.053 190.029 100.076C190.1 100.088 190.164 100.082 190.223 100.059C190.375 100.023 190.533 100.023 190.697 100.059C190.861 100.094 190.967 100.123 191.014 100.146C191.072 100.123 191.125 100.111 191.172 100.111C191.219 100.1 191.266 100.088 191.312 100.076C191.406 100.076 191.471 100.094 191.506 100.129C191.553 100.164 191.594 100.199 191.629 100.234C191.629 100.27 191.629 100.311 191.629 100.357C191.641 100.393 191.635 100.434 191.611 100.48C191.494 100.586 191.371 100.691 191.242 100.797C191.113 100.891 190.967 100.973 190.803 101.043C190.627 101.137 190.504 101.219 190.434 101.289C190.375 101.348 190.299 101.389 190.205 101.412C190.029 101.494 189.871 101.588 189.73 101.693C189.602 101.787 189.455 101.881 189.291 101.975C189.104 102.115 188.904 102.25 188.693 102.379C188.494 102.496 188.301 102.631 188.113 102.783C188.043 102.83 187.99 102.871 187.955 102.906C187.932 102.93 187.902 102.953 187.867 102.977C187.879 103.059 187.896 103.135 187.92 103.205C187.943 103.264 187.955 103.34 187.955 103.434C187.979 103.469 187.996 103.51 188.008 103.557C188.031 103.604 188.055 103.65 188.078 103.697C188.137 103.803 188.184 103.908 188.219 104.014C188.266 104.107 188.324 104.207 188.395 104.312C188.441 104.383 188.482 104.453 188.518 104.523C188.564 104.594 188.623 104.646 188.693 104.682C188.717 104.74 188.74 104.787 188.764 104.822C188.799 104.846 188.828 104.887 188.852 104.945C188.898 105.027 188.957 105.068 189.027 105.068C189.109 105.068 189.186 105.057 189.256 105.033C189.338 105.01 189.42 104.98 189.502 104.945C189.584 104.91 189.66 104.875 189.73 104.84C189.848 104.828 189.936 104.799 189.994 104.752C190.064 104.693 190.135 104.635 190.205 104.576C190.264 104.529 190.322 104.488 190.381 104.453C190.451 104.418 190.516 104.371 190.574 104.312C190.691 104.23 190.809 104.154 190.926 104.084C191.043 104.002 191.166 103.932 191.295 103.873C191.354 103.791 191.418 103.727 191.488 103.68C191.57 103.621 191.646 103.562 191.717 103.504C191.822 103.434 191.904 103.369 191.963 103.311C192.021 103.252 192.098 103.193 192.191 103.135C192.262 103.064 192.32 103.012 192.367 102.977C192.414 102.941 192.461 102.9 192.508 102.854C192.59 102.818 192.66 102.783 192.719 102.748C192.789 102.701 192.848 102.637 192.895 102.555C192.953 102.555 193 102.537 193.035 102.502C193.082 102.455 193.135 102.426 193.193 102.414C193.217 102.52 193.217 102.607 193.193 102.678C193.17 102.736 193.141 102.789 193.105 102.836C193.035 102.906 192.965 102.971 192.895 103.029C192.824 103.088 192.742 103.141 192.648 103.188C192.625 103.211 192.596 103.234 192.561 103.258C192.537 103.27 192.514 103.287 192.49 103.311C192.467 103.334 192.438 103.357 192.402 103.381C192.379 103.393 192.355 103.41 192.332 103.434C192.273 103.551 192.221 103.621 192.174 103.645C192.139 103.668 192.104 103.703 192.068 103.75C191.986 103.797 191.922 103.844 191.875 103.891C191.84 103.938 191.775 103.99 191.682 104.049C191.436 104.283 191.225 104.482 191.049 104.646C190.873 104.799 190.686 104.951 190.486 105.104C190.322 105.197 190.158 105.291 189.994 105.385C189.83 105.467 189.66 105.561 189.484 105.666C189.438 105.689 189.391 105.719 189.344 105.754C189.297 105.789 189.256 105.812 189.221 105.824C189.162 105.848 189.098 105.859 189.027 105.859C188.969 105.848 188.91 105.871 188.852 105.93C188.734 105.977 188.611 106.029 188.482 106.088C188.354 106.146 188.236 106.17 188.131 106.158C188.072 106.146 188.02 106.123 187.973 106.088C187.938 106.064 187.891 106.059 187.832 106.07C187.797 105.988 187.721 105.924 187.604 105.877C187.486 105.83 187.445 105.742 187.48 105.613C187.41 105.52 187.346 105.42 187.287 105.314C187.229 105.209 187.17 105.109 187.111 105.016C187.123 104.863 187.1 104.74 187.041 104.646C186.994 104.553 186.941 104.459 186.883 104.365C186.871 104.33 186.859 104.295 186.848 104.26C186.836 104.225 186.824 104.189 186.812 104.154C186.789 104.096 186.76 104.043 186.725 103.996C186.701 103.949 186.684 103.896 186.672 103.838C186.543 103.908 186.449 103.967 186.391 104.014C186.332 104.061 186.25 104.131 186.145 104.225C186.086 104.271 186.033 104.312 185.986 104.348C185.939 104.383 185.887 104.424 185.828 104.471C185.688 104.553 185.576 104.635 185.494 104.717C185.436 104.775 185.389 104.828 185.354 104.875C185.318 104.922 185.271 104.963 185.213 104.998C185.154 105.033 185.09 105.068 185.02 105.104C184.961 105.139 184.902 105.18 184.844 105.227C184.785 105.273 184.732 105.32 184.686 105.367C184.65 105.402 184.598 105.443 184.527 105.49C184.492 105.514 184.457 105.549 184.422 105.596C184.387 105.643 184.346 105.678 184.299 105.701C184.229 105.76 184.152 105.807 184.07 105.842C183.988 105.877 183.912 105.924 183.842 105.982C183.701 106.123 183.572 106.229 183.455 106.299C183.338 106.381 183.203 106.41 183.051 106.387C182.992 106.352 182.934 106.322 182.875 106.299C182.805 106.287 182.74 106.264 182.682 106.229C182.623 106.205 182.57 106.176 182.523 106.141C182.465 106.105 182.436 106.076 182.436 106.053C182.482 106.006 182.529 105.971 182.576 105.947C182.623 105.912 182.676 105.877 182.734 105.842C182.863 105.713 182.998 105.607 183.139 105.525C183.268 105.432 183.402 105.338 183.543 105.244C183.637 105.186 183.713 105.115 183.771 105.033C183.818 104.951 183.889 104.875 183.982 104.805C184.029 104.723 184.082 104.664 184.141 104.629C184.164 104.605 184.193 104.576 184.229 104.541C184.252 104.506 184.275 104.477 184.299 104.453C184.428 104.383 184.492 104.342 184.492 104.33C184.492 104.318 184.498 104.307 184.51 104.295C184.604 104.225 184.674 104.154 184.721 104.084C184.756 104.061 184.797 104.037 184.844 104.014C184.891 103.979 184.938 103.943 184.984 103.908C185.102 103.814 185.207 103.732 185.301 103.662C185.406 103.592 185.512 103.516 185.617 103.434C185.676 103.375 185.74 103.322 185.811 103.275C185.881 103.229 185.945 103.182 186.004 103.135C186.074 102.994 186.092 102.906 186.057 102.871C186.021 102.836 185.998 102.807 185.986 102.783C185.975 102.736 185.969 102.689 185.969 102.643C185.969 102.584 185.963 102.531 185.951 102.484L185.898 102.221C185.887 102.127 185.863 102.045 185.828 101.975C185.793 101.893 185.764 101.805 185.74 101.711C185.717 101.641 185.693 101.57 185.67 101.5C185.658 101.418 185.641 101.348 185.617 101.289C185.594 101.219 185.57 101.143 185.547 101.061C185.535 100.979 185.518 100.908 185.494 100.85C185.459 100.791 185.436 100.744 185.424 100.709C185.412 100.674 185.418 100.615 185.441 100.533C185.453 100.475 185.459 100.422 185.459 100.375C185.459 100.328 185.482 100.287 185.529 100.252C185.623 100.193 185.682 100.152 185.705 100.129C185.729 100.105 185.752 100.082 185.775 100.059C185.869 100.023 185.969 99.9766 186.074 99.918C186.18 99.8477 186.273 99.7949 186.355 99.7598C186.52 99.6543 186.637 99.6367 186.707 99.707C186.789 99.7656 186.842 99.8418 186.865 99.9355C186.807 100.076 186.777 100.164 186.777 100.199C186.789 100.234 186.795 100.27 186.795 100.305C186.771 100.422 186.76 100.527 186.76 100.621C186.76 100.703 186.795 100.773 186.865 100.832C186.842 100.879 186.836 100.92 186.848 100.955C186.871 100.99 186.895 101.02 186.918 101.043C186.953 101.242 187.012 101.418 187.094 101.57C187.176 101.723 187.258 101.881 187.34 102.045Z" fill="#177DCF"/>
</svg>
